<?xml version="1.0" encoding="utf-8"?>
<!-- Generator: Adobe Illustrator 26.3.1, SVG Export Plug-In . SVG Version: 6.00 Build 0)  -->
<svg version="1.1" id="Calque_1" xmlns="http://www.w3.org/2000/svg" xmlns:xlink="http://www.w3.org/1999/xlink" x="0px" y="0px"
	 viewBox="0 0 3000 909.8" style="enable-background:new 0 0 3000 909.8;" xml:space="preserve">
<style type="text/css">
	.st0{fill:#FA5022;}
</style>
<path class="st0" d="M2777,236.6v84.3c-47.8-61.3-117.2-99.6-199.6-99.6c-159,0-282.2,142.2-282.2,317.7s123.2,317.7,282.2,317.7
	c88.2,0,161.5-43.8,209.4-112.8v97.6h152.1V236.6H2777z M2616.9,705.2c-88.4,0-160-74.4-160-166.2s71.6-166.2,160-166.2
	s160,74.4,160,166.2S2705.3,705.2,2616.9,705.2z M912.5,68.7h161.8v772.7H912.5V68.7z M1260.4,498.6
	c0-166.3,102.1-277.2,243.5-277.2c87.8,0,157.2,39,199,105.5c41.9-66.5,111.2-105.5,199-105.5c141.4,0,243.5,110.9,243.5,277.2
	v342.9h-161.8V481.1c0-64.9-43-107.2-99.9-107.2s-99.9,42.4-99.9,107.2v360.4H1622V481.1c0-64.9-43-107.2-99.9-107.2
	s-99.9,42.4-99.9,107.2v360.4h-161.8L1260.4,498.6L1260.4,498.6z M619.5,242.9C581.2,99.4,500.2,53.5,423.1,53.5
	S265,99.4,226.7,242.9L60.4,841.6h163.9c26.7-100,109-155.7,198.8-155.7s172.1,55.8,198.8,155.7h164L619.5,242.9z M423.1,546.4
	c-52.2,0-99.5,19.8-134.4,51.9l94-348.4c9-33.3,22.3-43.9,40.5-43.9s31.5,10.6,40.5,43.9l93.9,348.4
	C522.7,566.2,475.3,546.4,423.1,546.4z"/>
</svg>
